<svg width="328" height="51" viewBox="0 0 328 51" fill="none" xmlns="http://www.w3.org/2000/svg">
<path d="M3.18918e-05 38.7998V1.04856H17.9319C20.7283 1.04856 23.1227 1.53793 25.1151 2.51667C27.1425 3.4954 28.698 4.85864 29.7816 6.60639C30.9001 8.35413 31.4594 10.399 31.4594 12.741C31.4594 15.0829 30.9001 17.1453 29.7816 18.928C28.663 20.7107 27.09 22.1089 25.0627 23.1226C23.0702 24.1013 20.6933 24.5907 17.9319 24.5907H6.39677V18.4036H17.5124C19.365 18.4036 20.7982 17.8968 21.8119 16.8831C22.8605 15.8345 23.3848 14.4712 23.3848 12.7934C23.3848 11.1156 22.8605 9.7698 21.8119 8.75611C20.7982 7.74242 19.365 7.23557 17.5124 7.23557H8.0746V38.7998H3.18918e-05ZM33.1307 38.7998V12.0593H40.8382V18.3512H40.9955V38.7998H33.1307ZM40.9955 24.8528L40.3139 18.5085C40.9431 16.2364 41.9743 14.5062 43.4074 13.3177C44.8406 12.1293 46.6233 11.535 48.7555 11.535C49.4196 11.535 49.909 11.6049 50.2236 11.7447V19.0853C50.0488 19.0154 49.8041 18.9804 49.4895 18.9804C49.175 18.9454 48.7905 18.928 48.336 18.928C45.8193 18.928 43.9667 19.3824 42.7782 20.2912C41.5898 21.1651 40.9955 22.6856 40.9955 24.8528ZM50.9904 38.7998V12.0593H58.8553V38.7998H50.9904ZM50.7283 8.49395V-8.12953e-05H59.1174V8.49395H50.7283ZM62.5009 38.7998V12.0593H70.2085V18.3512H70.3658V38.7998H62.5009ZM80.4852 38.7998V21.8117C80.4852 20.4485 80.1182 19.4523 79.3841 18.8231C78.685 18.159 77.6888 17.8269 76.3955 17.8269C75.2769 17.8269 74.2458 18.0891 73.302 18.6134C72.3932 19.1027 71.6766 19.8193 71.1523 20.7631C70.6279 21.6719 70.3658 22.7555 70.3658 24.0139L69.6842 17.9842C70.558 16.0267 71.8164 14.4712 73.4593 13.3177C75.1371 12.1293 77.147 11.535 79.489 11.535C82.2854 11.535 84.4526 12.3215 85.9906 13.8945C87.5636 15.4674 88.3501 17.4424 88.3501 19.8193V38.7998H80.4852ZM98.4695 38.7998V21.8117C98.4695 20.4485 98.1025 19.4523 97.3684 18.8231C96.6693 18.159 95.6731 17.8269 94.3798 17.8269C93.2612 17.8269 92.23 18.0891 91.2863 18.6134C90.3774 19.1027 89.6609 19.8193 89.1365 20.7631C88.6122 21.6719 88.3501 22.7555 88.3501 24.0139L87.1441 17.9842C88.018 16.0267 89.3113 14.4712 91.0241 13.3177C92.7718 12.1293 94.8691 11.535 97.316 11.535C100.217 11.535 102.437 12.3565 103.975 13.9993C105.548 15.6073 106.334 17.722 106.334 20.3436V38.7998H98.4695ZM125.865 38.7998C125.656 38.0308 125.498 37.2094 125.393 36.3355C125.324 35.4616 125.289 34.4479 125.289 33.2944H125.079V20.6582C125.079 19.5746 124.712 18.7357 123.978 18.1415C123.279 17.5123 122.23 17.1977 120.832 17.1977C119.504 17.1977 118.437 17.4249 117.633 17.8793C116.864 18.3337 116.358 18.9979 116.113 19.8718H108.615C108.965 17.4599 110.206 15.4674 112.338 13.8945C114.47 12.3215 117.389 11.535 121.094 11.535C124.939 11.535 127.875 12.3914 129.903 14.1042C131.93 15.817 132.944 18.2813 132.944 21.4972V33.2944C132.944 34.1683 132.996 35.0596 133.101 35.9685C133.241 36.8423 133.451 37.7861 133.73 38.7998H125.865ZM116.532 39.3241C113.876 39.3241 111.761 38.66 110.188 37.3317C108.615 35.9685 107.829 34.1683 107.829 31.9312C107.829 29.4494 108.755 27.457 110.608 25.9539C112.495 24.4159 115.117 23.4197 118.472 22.9653L126.285 21.8642V26.4258L119.783 27.422C118.385 27.6317 117.354 28.0162 116.69 28.5755C116.026 29.1348 115.693 29.9038 115.693 30.8825C115.693 31.7564 116.008 32.4205 116.637 32.875C117.266 33.3294 118.105 33.5566 119.154 33.5566C120.797 33.5566 122.195 33.1196 123.349 32.2458C124.502 31.3369 125.079 30.2883 125.079 29.0998L125.813 33.2944C125.044 35.2868 123.873 36.7899 122.3 37.8036C120.727 38.8173 118.804 39.3241 116.532 39.3241ZM136.367 38.7998V1.04856H144.232V38.7998H136.367ZM158.312 38.7998V7.23557H145.99V1.04856H178.708V7.23557H166.386V38.7998H158.312ZM174.8 38.7998V12.0593H182.508V18.3512H182.665V38.7998H174.8ZM182.665 24.8528L181.983 18.5085C182.613 16.2364 183.644 14.5062 185.077 13.3177C186.51 12.1293 188.293 11.535 190.425 11.535C191.089 11.535 191.579 11.6049 191.893 11.7447V19.0853C191.718 19.0154 191.474 18.9804 191.159 18.9804C190.845 18.9454 190.46 18.928 190.006 18.928C187.489 18.928 185.636 19.3824 184.448 20.2912C183.259 21.1651 182.665 22.6856 182.665 24.8528ZM208.928 38.7998C208.718 38.0308 208.56 37.2094 208.456 36.3355C208.386 35.4616 208.351 34.4479 208.351 33.2944H208.141V20.6582C208.141 19.5746 207.774 18.7357 207.04 18.1415C206.341 17.5123 205.292 17.1977 203.894 17.1977C202.566 17.1977 201.5 17.4249 200.696 17.8793C199.927 18.3337 199.42 18.9979 199.175 19.8718H191.677C192.027 17.4599 193.268 15.4674 195.4 13.8945C197.532 12.3215 200.451 11.535 204.156 11.535C208.001 11.535 210.937 12.3914 212.965 14.1042C214.992 15.817 216.006 18.2813 216.006 21.4972V33.2944C216.006 34.1683 216.058 35.0596 216.163 35.9685C216.303 36.8423 216.513 37.7861 216.792 38.7998H208.928ZM199.595 39.3241C196.938 39.3241 194.823 38.66 193.25 37.3317C191.677 35.9685 190.891 34.1683 190.891 31.9312C190.891 29.4494 191.817 27.457 193.67 25.9539C195.557 24.4159 198.179 23.4197 201.535 22.9653L209.347 21.8642V26.4258L202.845 27.422C201.447 27.6317 200.416 28.0162 199.752 28.5755C199.088 29.1348 198.756 29.9038 198.756 30.8825C198.756 31.7564 199.07 32.4205 199.699 32.875C200.329 33.3294 201.168 33.5566 202.216 33.5566C203.859 33.5566 205.257 33.1196 206.411 32.2458C207.564 31.3369 208.141 30.2883 208.141 29.0998L208.875 33.2944C208.106 35.2868 206.935 36.7899 205.362 37.8036C203.789 38.8173 201.867 39.3241 199.595 39.3241ZM218.303 38.7998V12.0593H226.167V38.7998H218.303ZM218.04 8.49395V-8.12953e-05H226.43V8.49395H218.04ZM229.813 38.7998V12.0593H237.521V18.3512H237.678V38.7998H229.813ZM248.427 38.7998V22.2312C248.427 20.7631 248.042 19.662 247.273 18.928C246.539 18.1939 245.455 17.8269 244.022 17.8269C242.799 17.8269 241.698 18.1065 240.719 18.6658C239.775 19.2251 239.024 19.9941 238.464 20.9728C237.94 21.9516 237.678 23.1051 237.678 24.4334L236.996 17.9842C237.87 16.0267 239.146 14.4712 240.824 13.3177C242.537 12.1293 244.634 11.535 247.116 11.535C250.087 11.535 252.359 12.3739 253.932 14.0518C255.505 15.6946 256.291 17.9143 256.291 20.7107V38.7998H248.427ZM259.347 38.7998V12.0593H267.212V38.7998H259.347ZM259.085 8.49395V-8.12953e-05H267.474V8.49395H259.085ZM270.858 38.7998V12.0593H278.565V18.3512H278.723V38.7998H270.858ZM289.471 38.7998V22.2312C289.471 20.7631 289.087 19.662 288.318 18.928C287.584 18.1939 286.5 17.8269 285.067 17.8269C283.844 17.8269 282.742 18.1065 281.764 18.6658C280.82 19.2251 280.068 19.9941 279.509 20.9728C278.985 21.9516 278.723 23.1051 278.723 24.4334L278.041 17.9842C278.915 16.0267 280.191 14.4712 281.869 13.3177C283.581 12.1293 285.679 11.535 288.16 11.535C291.132 11.535 293.404 12.3739 294.977 14.0518C296.55 15.6946 297.336 17.9143 297.336 20.7107V38.7998H289.471ZM312.918 50.0727C309.213 50.0727 306.19 49.2863 303.848 47.7133C301.541 46.1403 300.177 44.0081 299.758 41.3166H307.203C307.483 41.9807 308.077 42.4875 308.986 42.8371C309.93 43.1866 311.118 43.3614 312.551 43.3614C314.928 43.3614 316.658 42.907 317.742 41.9982C318.826 41.0893 319.367 39.6737 319.367 37.7512V31.9312L319.787 32.036C319.437 33.9935 318.424 35.549 316.746 36.7025C315.068 37.8211 312.988 38.3803 310.506 38.3803C308.13 38.3803 306.05 37.8385 304.267 36.7549C302.519 35.6364 301.156 34.0809 300.177 32.0885C299.199 30.096 298.709 27.7541 298.709 25.0625C298.709 22.3361 299.216 19.9591 300.23 17.9318C301.243 15.9044 302.659 14.3314 304.477 13.2129C306.329 12.0943 308.479 11.535 310.926 11.535C313.443 11.535 315.488 12.1293 317.06 13.3177C318.668 14.5062 319.612 16.1316 319.892 18.1939L319.525 18.2464V12.0593H327.232V37.6463C327.232 41.4913 325.956 44.5149 323.405 46.7171C320.853 48.9542 317.358 50.0727 312.918 50.0727ZM313.233 32.3506C315.086 32.3506 316.589 31.7214 317.742 30.4631C318.896 29.1697 319.472 27.3346 319.472 24.9577C319.472 22.5808 318.878 20.7631 317.69 19.5047C316.536 18.2114 315.016 17.5647 313.128 17.5647C311.31 17.5647 309.807 18.2114 308.619 19.5047C307.465 20.7981 306.889 22.6332 306.889 25.0101C306.889 27.387 307.465 29.2047 308.619 30.4631C309.807 31.7214 311.345 32.3506 313.233 32.3506Z" fill="black"/>
</svg>
